<svg width="40" height="40" viewBox="0 0 40 40" fill="none" xmlns="http://www.w3.org/2000/svg">
<g clip-path="url(#clip0_445_12)">
<path d="M22.5 12.4999C22.5 12.1684 22.6317 11.8505 22.8661 11.616C23.1005 11.3816 23.4185 11.2499 23.75 11.2499H38.75C39.0815 11.2499 39.3994 11.3816 39.6339 11.616C39.8683 11.8505 40 12.1684 40 12.4999C40 12.8314 39.8683 13.1494 39.6339 13.3838C39.3994 13.6182 39.0815 13.7499 38.75 13.7499H23.75C23.4185 13.7499 23.1005 13.6182 22.8661 13.3838C22.6317 13.1494 22.5 12.8314 22.5 12.4999ZM38.75 18.7499H23.75C23.4185 18.7499 23.1005 18.8816 22.8661 19.116C22.6317 19.3504 22.5 19.6684 22.5 19.9999C22.5 20.3314 22.6317 20.6494 22.8661 20.8838C23.1005 21.1182 23.4185 21.2499 23.75 21.2499H38.75C39.0815 21.2499 39.3994 21.1182 39.6339 20.8838C39.8683 20.6494 40 20.3314 40 19.9999C40 19.6684 39.8683 19.3504 39.6339 19.116C39.3994 18.8816 39.0815 18.7499 38.75 18.7499ZM38.75 26.2499H27.5C27.1685 26.2499 26.8505 26.3816 26.6161 26.616C26.3817 26.8505 26.25 27.1684 26.25 27.4999C26.25 27.8314 26.3817 28.1494 26.6161 28.3838C26.8505 28.6182 27.1685 28.7499 27.5 28.7499H38.75C39.0815 28.7499 39.3994 28.6182 39.6339 28.3838C39.8683 28.1494 40 27.8314 40 27.4999C40 27.1684 39.8683 26.8505 39.6339 26.616C39.3994 26.3816 39.0815 26.2499 38.75 26.2499ZM23.7109 29.6874C23.7518 29.8464 23.7609 30.012 23.7378 30.1745C23.7147 30.3371 23.6598 30.4935 23.5762 30.6348C23.4926 30.7761 23.382 30.8996 23.2507 30.9982C23.1194 31.0967 22.97 31.1685 22.8109 31.2093C22.709 31.2367 22.6039 31.2504 22.4984 31.2499C22.2212 31.2501 21.9518 31.158 21.7326 30.9883C21.5134 30.8186 21.3568 30.5808 21.2875 30.3124C20.325 26.5718 16.5469 23.7499 12.4984 23.7499C8.44998 23.7499 4.67185 26.5702 3.70935 30.3124C3.62647 30.6336 3.41941 30.9087 3.13371 31.0771C2.84801 31.2456 2.50708 31.2937 2.18592 31.2109C1.86476 31.128 1.58967 30.9209 1.42118 30.6352C1.25269 30.3495 1.2046 30.0086 1.28748 29.6874C2.16092 26.2952 4.69998 23.5484 7.92185 22.1874C6.68128 21.2319 5.7709 19.912 5.31839 18.4129C4.86588 16.9138 4.89395 15.3107 5.39864 13.8283C5.90334 12.346 6.85936 11.0588 8.13262 10.1473C9.40587 9.23574 10.9325 8.74561 12.4984 8.74561C14.0643 8.74561 15.591 9.23574 16.8642 10.1473C18.1375 11.0588 19.0935 12.346 19.5982 13.8283C20.1029 15.3107 20.131 16.9138 19.6784 18.4129C19.2259 19.912 18.3156 21.2319 17.075 22.1874C20.2984 23.5484 22.8375 26.2952 23.7109 29.6874ZM12.5 21.2499C13.4889 21.2499 14.4556 20.9567 15.2778 20.4073C16.1001 19.8579 16.7409 19.077 17.1194 18.1633C17.4978 17.2497 17.5968 16.2444 17.4039 15.2745C17.211 14.3046 16.7348 13.4136 16.0355 12.7144C15.3363 12.0151 14.4453 11.5389 13.4754 11.346C12.5055 11.1531 11.5002 11.2521 10.5866 11.6305C9.67293 12.009 8.89204 12.6498 8.34263 13.4721C7.79322 14.2943 7.49998 15.261 7.49998 16.2499C7.49998 17.576 8.02676 18.8478 8.96444 19.7854C9.90213 20.7231 11.1739 21.2499 12.5 21.2499Z" fill="black"/>
</g>
<defs>
<clipPath id="clip0_445_12">
<rect width="40" height="40" fill="white"/>
</clipPath>
</defs>
</svg>
