<svg width="30" height="30" viewBox="0 0 30 30" fill="none" xmlns="http://www.w3.org/2000/svg">
<path d="M15.6578 0C16.1567 0.000471179 16.6365 0.163132 16.9993 0.454747C17.362 0.746363 17.5803 1.14492 17.6095 1.56899C17.6388 1.99306 17.4767 2.41063 17.1566 2.73639C16.8364 3.06214 16.3822 3.27149 15.8868 3.32167L15.6578 3.33333H5.87169C5.3923 3.33339 4.9296 3.48326 4.57136 3.75453C4.21312 4.02579 3.98425 4.39958 3.92816 4.805L3.91446 5V25C3.91452 25.4082 4.09052 25.8022 4.40908 26.1073C4.72764 26.4123 5.16659 26.6072 5.64269 26.655L5.87169 26.6667H14.6792C15.1781 26.6671 15.6579 26.8298 16.0206 27.1214C16.3834 27.413 16.6017 27.8116 16.6309 28.2357C16.6602 28.6597 16.4981 29.0773 16.1779 29.4031C15.8578 29.7288 15.4036 29.9382 14.9082 29.9883L14.6792 30H5.87169C4.374 30.0001 2.93288 29.5128 1.8432 28.6379C0.75352 27.7629 0.0976511 26.5665 0.00978638 25.2933L9.12157e-09 25V5C-8.34205e-05 3.72465 0.572147 2.49748 1.59961 1.56957C2.62708 0.641655 4.0321 0.0831541 5.52722 0.00833352L5.87169 0H15.6578ZM23.8919 9.10667L29.4269 13.8217C29.7939 14.1342 30 14.5581 30 15C30 15.4419 29.7939 15.8658 29.4269 16.1783L23.8919 20.8933C23.5246 21.2058 23.0266 21.3813 22.5074 21.3812C21.9883 21.381 21.4904 21.2052 21.1234 20.8925C20.7564 20.5798 20.5503 20.1557 20.5505 19.7136C20.5507 19.2715 20.7571 18.8475 21.1244 18.535L23.3184 16.6667H12.722C12.2029 16.6667 11.7051 16.4911 11.338 16.1785C10.971 15.8659 10.7648 15.442 10.7648 15C10.7648 14.558 10.971 14.134 11.338 13.8215C11.7051 13.5089 12.2029 13.3333 12.722 13.3333H23.3184L21.1244 11.465C20.7571 11.1525 20.5507 10.7285 20.5505 10.2864C20.5503 9.84431 20.7564 9.42023 21.1234 9.1075C21.4904 8.79477 21.9883 8.61898 22.5074 8.61883C23.0266 8.61867 23.5246 8.79415 23.8919 9.10667Z" fill="black"/>
</svg>
