<svg width="60" height="60" viewBox="0 0 60 60" fill="none" xmlns="http://www.w3.org/2000/svg">
<g clip-path="url(#clip0_34_1231)">
<g clip-path="url(#clip1_34_1231)">
<g clip-path="url(#clip2_34_1231)">
<g clip-path="url(#clip3_34_1231)">
<g clip-path="url(#clip4_34_1231)">
<g clip-path="url(#clip5_34_1231)">
<path d="M26.2644 17.8632H33.3922L36.9115 21.0896C37.1209 21.2824 37.3844 21.3775 37.6479 21.3775C37.9457 21.3775 38.2416 21.2565 38.4582 21.0172C38.8657 20.5671 38.8333 19.869 38.3856 19.4595L34.5525 15.9459C34.3511 15.7604 34.0876 15.658 33.8149 15.658H26.2644C25.3458 15.658 24.5995 14.9068 24.5995 13.9826V3.8806C24.5995 2.95715 25.3458 2.20523 26.2644 2.20523H41.2339C42.1512 2.20523 42.8988 2.95715 42.8988 3.8806V12.8797C42.8988 13.8031 42.1512 14.5557 41.2339 14.5557H39.6965C39.0909 14.5557 38.6015 15.049 38.6015 15.658C38.6015 16.267 39.0909 16.7603 39.6965 16.7603H41.2339C43.3597 16.7603 45.0887 15.0198 45.0887 12.8797V3.8806C45.0887 1.74118 43.3597 0 41.2339 0H26.2644C24.1379 0 22.4083 1.74118 22.4083 3.8806V13.982C22.4083 16.1227 24.1379 17.8632 26.2644 17.8632Z" fill="#F9744C"/>
<path d="M5.60888 13.1682C5.82285 13.4681 6.15834 13.6283 6.50043 13.6283C6.72034 13.6283 6.94356 13.5605 7.13838 13.4209C7.62907 13.0665 7.74133 12.3771 7.38934 11.8825L5.4101 9.10482C5.0581 8.61218 4.37656 8.4965 3.88191 8.85218C3.39123 9.2072 3.27698 9.89596 3.63096 10.3906L5.60888 13.1682Z" fill="#F9744C"/>
<path d="M11.6305 12.351C12.2361 12.351 12.7261 11.8571 12.7261 11.2481V6.83764C12.7261 6.22865 12.2367 5.73535 11.6305 5.73535C11.0255 5.73535 10.5349 6.22865 10.5349 6.83764V11.2481C10.5349 11.8571 11.0255 12.351 11.6305 12.351Z" fill="#F9744C"/>
<path d="M16.4396 13.4965C16.6033 13.5862 16.7817 13.6281 16.956 13.6281C17.3463 13.6281 17.7247 13.4174 17.9215 13.0471L19.4021 10.2701C19.6894 9.7329 19.4893 9.06541 18.9551 8.77687C18.4221 8.48767 17.7584 8.69045 17.4731 9.2263L15.9925 12.0033C15.7052 12.5405 15.9046 13.2086 16.4396 13.4965Z" fill="#F9744C"/>
<path d="M45.1567 26.0993C45.8373 26.0993 46.389 25.5439 46.389 24.8587C46.389 24.1736 45.8373 23.6182 45.1567 23.6182C44.4761 23.6182 43.9244 24.1736 43.9244 24.8587C43.9244 25.5439 44.4761 26.0993 45.1567 26.0993Z" fill="#F9744C"/>
<path d="M16.5406 26.0993C17.2212 26.0993 17.7729 25.5439 17.7729 24.8587C17.7729 24.1736 17.2212 23.6182 16.5406 23.6182C15.86 23.6182 15.3083 24.1736 15.3083 24.8587C15.3083 25.5439 15.86 26.0993 16.5406 26.0993Z" fill="#F9744C"/>
<path d="M58.9969 32.3055C58.4025 32.2569 57.8636 32.705 57.8134 33.312L56.7231 46.3194C56.7231 46.3433 56.5283 48.7374 55.1242 48.7374H55.1051C55.5971 47.6284 55.6215 46.4922 55.6202 46.3274L55.6308 37.3236C55.6308 37.2538 55.6242 37.1827 55.6103 37.1142C55.5845 36.9819 55.0529 34.3305 53.3022 32.473C55.5779 30.8136 56.9925 28.1463 56.9925 25.243C56.9925 20.3127 53.0083 16.3024 48.1101 16.3024C43.2131 16.3024 39.2282 20.3133 39.2282 25.243C39.2282 28.8564 41.3785 32.0602 44.5927 33.4523C44.5888 33.4669 44.5789 33.4796 44.5769 33.4955L43.6748 38.8148H37.3949C37.1572 38.8148 36.9234 38.8933 36.7326 39.0382C36.5793 39.1565 35.2281 40.2422 35.2281 42.1223C35.2281 42.5332 35.2869 42.8948 35.3728 43.2253H24.5811C24.6709 42.8935 24.7296 42.5305 24.7296 42.1223C24.7296 40.2681 23.6743 39.2449 23.0516 38.9311C22.899 38.8547 22.7326 38.8148 22.5622 38.8148H18.3145L17.6851 33.1777C17.6851 33.1764 17.6838 33.1751 17.6838 33.1737C20.5737 31.6626 22.4684 28.6336 22.4684 25.2424C22.4684 20.312 18.4835 16.3018 13.5859 16.3018C8.6877 16.3018 4.70346 20.3127 4.70346 25.2424C4.70346 27.7694 5.77596 30.1175 7.55246 31.7816C5.70398 33.794 5.44246 37.0942 5.42859 37.3236L5.43915 46.322C5.43915 46.4916 5.46227 47.6284 5.95427 48.7374H5.93512C3.93541 48.7374 3.55699 46.4962 3.52595 46.2775L2.18467 33.2901C2.12193 32.6858 1.5903 32.243 0.982065 32.3075C0.381094 32.3706 -0.0567556 32.9131 0.00598306 33.5175L1.34991 46.5354C1.48728 47.5739 2.09551 49.238 3.4685 50.1973L1.1967 57.7424C1.02103 58.3268 1.34793 58.9425 1.92645 59.1186C2.03343 59.1505 2.1391 59.1658 2.2441 59.1658C2.71563 59.1658 3.14952 58.8587 3.29349 58.3813L5.53888 50.92C5.66831 50.9306 5.79776 50.9419 5.93512 50.9419H8.34429C8.43806 50.9419 8.52127 50.9107 8.60845 50.8887C8.79799 50.9193 8.99281 50.9419 9.19555 50.9419H17.1079L17.1112 57.3841C17.2023 58.4352 18.1361 59.9995 20.3353 59.9995C22.5146 59.9995 23.457 58.3873 23.6505 57.5357C23.6684 57.4539 23.6789 57.3715 23.6789 57.289V49.208C23.706 48.266 23.3903 46.7402 22.3581 45.4292H22.5681C22.5721 45.4292 22.5747 45.4278 22.5774 45.4278C22.5787 45.4278 22.5813 45.4292 22.584 45.4292H37.3844H37.6961C35.9764 47.0866 35.7452 48.9434 35.734 49.0618C35.7301 49.1003 35.7274 49.1382 35.7274 49.1768V57.2897C35.7274 57.4818 35.7763 57.67 35.872 57.8375C35.9222 57.9253 37.1301 60.0002 39.6166 60.0002C41.7609 60.0002 42.9443 58.5701 43.3056 57.7258C43.365 57.5869 43.3954 57.4386 43.3954 57.2897V50.9426H51.8638C51.9622 50.9426 52.0547 50.9246 52.1511 50.9167L54.1455 58.3501C54.2789 58.8421 54.7194 59.1665 55.2028 59.1665C55.2979 59.1665 55.395 59.1532 55.4901 59.1279C56.0746 58.969 56.4186 58.3627 56.2628 57.7757L54.4295 50.9432H55.1256C57.8913 50.9432 58.8106 48.0134 58.909 46.4849L59.9961 33.4982C60.0469 32.8905 59.5998 32.3567 58.9969 32.3055ZM22.1805 43.2246H14.8229L13.0319 38.9843C12.7961 38.4219 12.1515 38.1633 11.5961 38.4C11.0401 38.6386 10.7799 39.2855 11.017 39.8459L13.0913 44.759C13.263 45.1652 13.6599 45.4298 14.0991 45.4298H18.5132C21.4342 46.2835 21.493 48.8597 21.489 49.1775V57.1208C21.3867 57.3808 21.1047 57.7956 20.336 57.7956C19.5871 57.7956 19.3566 57.4838 19.2985 57.2053V49.8396C19.2985 49.2313 18.8078 48.7374 18.2035 48.7374H9.19555C7.66076 48.7374 7.62972 46.4237 7.62972 46.3247L7.61718 37.4047C7.68256 36.5305 8.1356 34.2002 9.37452 33.0913C9.57595 33.2003 9.76945 33.3233 9.97945 33.4164C10.5329 33.6664 11.1801 33.4124 11.4257 32.858C11.6708 32.3002 11.4231 31.6493 10.8697 31.4026C8.45457 30.3223 6.89469 27.9037 6.89469 25.2424C6.89469 21.5286 9.89558 18.507 13.5866 18.507C16.8048 18.507 19.4999 20.806 20.1352 23.8582C19.8149 24.0829 19.591 24.4372 19.591 24.8587C19.591 25.3181 19.8519 25.7037 20.2224 25.9185C20.1702 26.447 20.0777 26.9656 19.9087 27.4549C19.5923 27.657 18.5099 28.2208 17.3146 27.3585C16.8213 27.0035 16.1371 27.1185 15.7851 27.6111C15.4324 28.1064 15.5454 28.7945 16.0374 29.1495C16.81 29.7073 17.5847 29.9427 18.3085 29.9999C17.4889 30.8269 16.46 31.4545 15.2766 31.7623C14.6915 31.9152 14.3401 32.5169 14.4914 33.1066C14.6195 33.6026 15.0639 33.9323 15.5507 33.9323C15.5559 33.9323 15.5599 33.9297 15.5645 33.9297L16.2474 40.0387C16.3101 40.5965 16.779 41.018 17.3364 41.018H22.1924C22.3396 41.1836 22.5397 41.5187 22.5397 42.1203C22.5391 42.7027 22.3317 43.0484 22.1805 43.2246ZM53.4296 46.3247C53.4296 46.4231 53.3986 48.7374 51.8638 48.7374H42.2985C41.6942 48.7374 41.2042 49.2313 41.2042 49.8396V57.0045C41.0226 57.2697 40.5484 57.7943 39.6172 57.7943C38.7382 57.7943 38.1683 57.2471 37.9186 56.9413V49.2519C37.9761 48.9002 38.5249 46.3945 42.278 45.4298H47.9502C48.3894 45.4298 48.787 45.1659 48.9587 44.759L51.031 39.8459C51.2681 39.2855 51.0079 38.638 50.4505 38.4C49.8978 38.1633 49.2519 38.4232 49.0155 38.9843L47.2251 43.2246H37.918H37.7542C37.6182 43.0644 37.4181 42.7273 37.4181 42.1217C37.4181 41.6284 37.6532 41.2447 37.8394 41.0194H44.5967C45.131 41.0194 45.5866 40.6318 45.6771 40.1019L46.7338 33.8652C46.7404 33.8266 46.7272 33.7894 46.7298 33.7501C46.9537 33.6059 47.1346 33.3878 47.2066 33.1073C47.3578 32.5169 47.0052 31.9159 46.4221 31.763C45.2386 31.4545 44.209 30.8276 43.3895 30.0005C44.1139 29.9433 44.8892 29.7073 45.6599 29.1502C46.1506 28.7952 46.2642 28.1064 45.9109 27.6118C45.5596 27.1178 44.876 27.0055 44.3827 27.3592C43.2032 28.2108 42.1393 27.6789 41.7893 27.4569C41.6209 26.9676 41.5284 26.4477 41.4763 25.9191C41.8461 25.7044 42.1063 25.3188 42.1063 24.8594C42.1063 24.4379 41.8831 24.0836 41.5615 23.8589C42.1974 20.8066 44.8925 18.5077 48.1101 18.5077C51.8011 18.5077 54.8026 21.5286 54.8026 25.243C54.8026 27.905 53.2434 30.323 50.829 31.4033C50.2749 31.65 50.0279 32.3015 50.2722 32.8586C50.432 33.219 50.7669 33.4337 51.1294 33.4849C52.7038 34.6031 53.3259 36.9506 53.4402 37.4406L53.4296 46.3247Z" fill="#F9744C"/>
<path d="M39.3861 7.88892C39.355 6.67295 38.8518 5.62452 37.9312 4.85797C36.7715 3.89331 34.9131 3.8973 33.7515 4.82806C33.0231 4.24301 32.0701 3.97708 31.098 4.15525C30.0981 4.33675 29.2785 4.9105 28.7278 5.81666C27.7682 7.40293 28.1103 8.70134 28.5679 9.5111C28.8724 10.0516 29.2647 10.5795 29.7732 11.128C30.6634 12.0793 31.7042 12.9722 33.0904 13.9681C33.2674 14.0838 33.5401 14.1689 33.7502 14.1689C33.978 14.1689 34.2871 14.0532 34.4726 13.9196C35.6713 13.0606 36.6606 12.2269 37.494 11.37C37.9847 10.866 38.5434 10.2437 38.9654 9.44462C39.1688 9.05702 39.4013 8.52982 39.3861 7.88892ZM37.0284 8.41214C36.7392 8.96129 36.3099 9.43465 35.9302 9.82556C35.3107 10.4611 34.6153 11.0675 33.7482 11.7223C32.7952 11.0023 32.0298 10.3242 31.3714 9.62013C30.9857 9.20329 30.6912 8.81104 30.4726 8.42278C30.283 8.08704 30.1674 7.67751 30.598 6.96614C30.8206 6.59916 31.1039 6.39506 31.4883 6.32525C31.5583 6.31195 31.6289 6.30597 31.6983 6.30597C32.1209 6.30597 32.4987 6.54863 32.7173 6.97013L32.7866 7.1031C32.9821 7.4641 33.3942 7.67086 33.7713 7.67817C34.1814 7.66886 34.5519 7.43086 34.7309 7.06121C34.8167 6.88503 34.9065 6.75406 35.0195 6.63971C35.3999 6.25212 36.121 6.21289 36.5351 6.55927C36.9703 6.9216 37.1803 7.36238 37.1942 7.9441C37.1975 8.07374 37.1011 8.27386 37.0284 8.41214Z" fill="#F9744C"/>
<path d="M35.2513 30.8784C35.1423 30.2807 34.5803 29.8831 33.976 29.9928C32.2391 30.3133 31.1013 31.3451 30.3794 32.5338C29.6563 31.3451 28.5177 30.3133 26.7835 29.9928C26.1799 29.8831 25.6166 30.2807 25.5089 30.8784C25.3986 31.4774 25.7936 32.0518 26.3879 32.1615C29.0639 32.6561 29.2719 35.9796 29.2845 36.2395V38.1409C29.2845 38.7499 29.7752 39.2439 30.3801 39.2439C30.9857 39.2439 31.4751 38.7499 31.4751 38.1409V36.2389C31.4883 35.9796 31.6943 32.6561 34.3716 32.1615C34.9666 32.0511 35.3596 31.4774 35.2513 30.8784Z" fill="#F9744C"/>
<path d="M34.085 35.5402C33.484 35.4625 32.9365 35.8926 32.8606 36.4956L32.4577 39.722C32.2055 40.0232 31.0828 40.4686 30.3801 40.4686C29.6583 40.4686 28.494 39.9992 28.3071 39.7672L27.9009 36.0974C27.8329 35.4924 27.3 35.0569 26.6897 35.1234C26.0888 35.1912 25.6575 35.7364 25.7242 36.3407L26.1416 40.1123C26.1456 40.1495 26.1522 40.1854 26.1594 40.2213C26.5319 41.9678 29.2931 42.6732 30.3808 42.6732C31.4704 42.6732 34.2336 41.9665 34.6153 40.1276L35.036 36.7715C35.1099 36.1678 34.6846 35.616 34.085 35.5402Z" fill="#F9744C"/>
</g>
</g>
</g>
</g>
</g>
</g>
<defs>
<clipPath id="clip0_34_1231">
<rect width="60" height="60" fill="white"/>
</clipPath>
<clipPath id="clip1_34_1231">
<rect width="60" height="60" fill="white"/>
</clipPath>
<clipPath id="clip2_34_1231">
<rect width="60" height="60" fill="white"/>
</clipPath>
<clipPath id="clip3_34_1231">
<rect width="60" height="60" fill="white"/>
</clipPath>
<clipPath id="clip4_34_1231">
<rect width="60" height="60" fill="white"/>
</clipPath>
<clipPath id="clip5_34_1231">
<rect width="60" height="60" fill="white"/>
</clipPath>
</defs>
</svg>
